<svg width="800" height="993" viewBox="0 0 800 993" fill="none" xmlns="http://www.w3.org/2000/svg">
<path d="M420.5 806C411.196 846.586 424.5 904 424.5 904L372 794.5L342.5 538.5C342.5 538.5 339.861 467.449 349.5 423.5C361.046 370.858 373.259 341.11 403.5 296.5C442.306 239.254 481.356 221.393 536 179C584.826 141.12 617.374 126.991 666.5 89.5C709.806 56.4505 773.5 0 773.5 0C773.5 0 804.277 152.004 799 250C795.34 317.956 796.025 358.714 771 422C751.445 471.452 734.942 497.983 700.5 538.5C677.958 565.018 662.328 577.238 636 600C583.867 645.07 537 661.5 492 702C456.365 734.071 431.213 759.271 420.5 806Z" fill="#456549"/>
<path d="M390.5 749.5C383.764 782.403 390.5 835.5 390.5 835.5L356 759V662C356 662 367.029 595.766 382.5 556C405.367 497.225 425.759 465.829 468 419C506.336 376.5 554.5 345.5 599.5 313C649.035 277.225 680.5 239 680.5 239C680.5 239 679.523 279.367 676.5 304C672.266 338.503 669.457 356.547 657 389C641.099 430.426 627.907 452.912 599.5 487C537 562 492 584 444 646C416.146 681.978 399.625 704.925 390.5 749.5Z" fill="#96CEA3"/>
<circle cx="344.5" cy="137.5" r="89.5" fill="#0C4B60"/>
<path d="M119.5 268.001C74.2918 254.471 0 256 0 256C0 256 93.5 293.499 140.5 335C196.652 384.582 218.296 423.107 251 490.5C299.528 590.5 290.5 690 306.5 743.001C327.472 812.473 363.493 876.479 412.5 930C450.884 971.919 509.5 993.001 509.5 993.001C509.5 993.001 450.116 937.94 425 896.5C385.6 831.493 377.57 787.911 368 712.501C355.5 614 362.178 568.5 326.5 482.501C302.607 424.907 286.185 387.996 242 344C201.299 303.473 174.525 284.468 119.5 268.001Z" fill="#0C4B60"/>
</svg>
